<?xml version="1.0" encoding="UTF-8" standalone="no"?>
<svg
   version="1.2"
   viewBox="0 0 561.90002 87.5"
   width="561.90002"
   height="87.5"
   id="svg1"
   sodipodi:docname="ICCC.svg"
   inkscape:version="1.3.1 (91b66b0783, 2023-11-16)"
   xmlns:inkscape="http://www.inkscape.org/namespaces/inkscape"
   xmlns:sodipodi="http://sodipodi.sourceforge.net/DTD/sodipodi-0.dtd"
   xmlns="http://www.w3.org/2000/svg"
   xmlns:svg="http://www.w3.org/2000/svg">
  <defs
     id="defs1" />
  <sodipodi:namedview
     id="namedview1"
     pagecolor="#ffffff"
     bordercolor="#000000"
     borderopacity="0.25"
     inkscape:showpageshadow="2"
     inkscape:pageopacity="0.0"
     inkscape:pagecheckerboard="0"
     inkscape:deskcolor="#d1d1d1"
     inkscape:zoom="0.99375"
     inkscape:cx="280.75472"
     inkscape:cy="43.773585"
     inkscape:window-width="1920"
     inkscape:window-height="991"
     inkscape:window-x="-9"
     inkscape:window-y="-9"
     inkscape:window-maximized="1"
     inkscape:current-layer="svg1" />
  <style
     id="style1">
		.s0 { fill: #000000 } 
		.s1 { fill: #003e8c } 
	</style>
  <path
     id="ICCC Hub"
     class="s0"
     aria-label="ICCC Hub"
     d="M 18.8,86.1 H 0 L 16.2,4.9 h 18.9 z m 64.3,1.4 q -9.5,0 -17.6,-3 -8,-3.2 -13.9,-8.7 -5.9,-5.8 -9.3,-13.4 -3.2,-7.7 -3.2,-16.9 0,-9.2 3.2,-16.8 3.4,-7.7 9.3,-13.4 6,-5.6 14,-8.7 8.1,-3.1 17.5,-3.1 10.6,0 19.1,3.7 8.6,3.6 14.4,10.7 L 104.5,29 q -4.1,-4.7 -9.3,-7 -5.1,-2.5 -11.2,-2.5 -5.6,0 -10.5,1.9 -4.6,1.8 -8.1,5.3 -3.5,3.5 -5.5,8.4 -1.8,4.6 -1.8,10.4 0,5.8 1.8,10.6 2,4.7 5.5,8.3 3.5,3.4 8.1,5.3 4.9,1.8 10.5,1.8 6.1,0 11.2,-2.3 5.2,-2.5 9.3,-7.3 L 116.6,73 q -5.8,7 -14.4,10.8 -8.5,3.7 -19.1,3.7 z m 80,0 q -9.5,0 -17.6,-3 -8,-3.2 -13.9,-8.7 -5.9,-5.8 -9.3,-13.4 -3.2,-7.7 -3.2,-16.9 0,-9.2 3.2,-16.8 3.4,-7.7 9.3,-13.4 6,-5.6 14,-8.7 8.1,-3.1 17.5,-3.1 10.6,0 19.1,3.7 8.6,3.6 14.4,10.7 L 184.5,29 q -4.1,-4.7 -9.3,-7 -5.1,-2.5 -11.2,-2.5 -5.6,0 -10.5,1.9 -4.6,1.8 -8.1,5.3 -3.5,3.5 -5.5,8.4 -1.8,4.6 -1.8,10.4 0,5.8 1.8,10.6 2,4.7 5.5,8.3 3.5,3.4 8.1,5.3 4.9,1.8 10.5,1.8 6.1,0 11.2,-2.3 5.2,-2.5 9.3,-7.3 L 196.6,73 q -5.8,7 -14.4,10.8 -8.5,3.7 -19.1,3.7 z m 81,0 q -9.5,0 -17.6,-3 -8,-3.2 -13.9,-8.7 -5.9,-5.8 -9.3,-13.4 -3.2,-7.7 -3.2,-16.9 0,-9.2 3.2,-16.8 3.4,-7.7 9.3,-13.4 6,-5.6 14,-8.7 8.1,-3.1 17.5,-3.1 10.6,0 19.1,3.7 8.6,3.6 14.4,10.7 L 265.5,29 q -4.1,-4.7 -9.3,-7 -5.1,-2.5 -11.2,-2.5 -5.6,0 -10.5,1.9 -4.6,1.8 -8.1,5.3 -3.5,3.5 -5.5,8.4 -1.8,4.6 -1.8,10.4 0,5.8 1.8,10.6 2,4.7 5.5,8.3 3.5,3.4 8.1,5.3 4.9,1.8 10.5,1.8 6.1,0 11.2,-2.3 5.2,-2.5 9.3,-7.3 L 277.6,73 q -5.8,7 -14.4,10.8 -8.5,3.7 -19.1,3.7 z" />
  <path
     id="path1"
     class="s1"
     aria-label="ICCC Hub"
     d="M 396.7,86.1 H 377.9 V 4.9 h 18.8 z m -55.6,0 H 322.2 V 4.9 h 18.9 z M 379.3,52.8 H 339.6 V 37 h 39.7 z m 61,34.1 q -7.8,0 -13.9,-2.9 -6,-3 -9.5,-9.2 -3.4,-6.3 -3.4,-15.9 V 23.6 h 18.1 v 32.6 q 0,7.8 3.3,11.5 3.4,3.6 9.4,3.6 4.2,0 7.4,-1.7 3.3,-1.9 5.2,-5.6 1.9,-3.8 1.9,-9.5 V 23.6 h 18 V 86 H 459.6 V 68.8 l 3.2,5.1 q -3.2,6.4 -9.3,9.8 -6,3.2 -13.2,3.2 z m 90.5,0 q -8.1,0 -14.1,-3.4 -5.9,-3.5 -9.1,-10.6 -3.1,-7.1 -3.1,-18.1 0,-11 3.3,-17.9 3.3,-7.2 9.1,-10.6 6.1,-3.5 13.9,-3.5 8.8,0 15.8,4 7.1,3.9 11.2,11.1 4.1,7.1 4.1,16.9 0,9.8 -4.1,17.1 -4.1,7.1 -11.2,11.1 -7,3.9 -15.8,3.9 z M 511.2,86 H 494 V 0 h 18.1 v 36.2 l -1.2,18.6 0.3,18.5 z m 16.5,-14 q 4.5,0 8,-1.9 3.7,-2.2 5.7,-6.1 2.2,-3.9 2.2,-9.3 0,-5.4 -2.2,-9.2 -2,-3.9 -5.7,-5.9 -3.5,-2.1 -8,-2.1 -4.5,0 -8.1,2.1 -3.6,2 -5.8,5.9 -2,3.8 -2,9.2 0,5.4 2,9.3 2.2,3.9 5.8,6.1 3.6,1.9 8.1,1.9 z" />
</svg>
